<?xml version="1.0" encoding="UTF-8" standalone="no"?>
<!DOCTYPE svg PUBLIC "-//W3C//DTD SVG 1.1//EN" "http://www.w3.org/Graphics/SVG/1.1/DTD/svg11.dtd">
<svg width="100%" height="100%" viewBox="0 0 3544 3544" version="1.1" xmlns="http://www.w3.org/2000/svg" xmlns:xlink="http://www.w3.org/1999/xlink" xml:space="preserve" xmlns:serif="http://www.serif.com/" style="fill-rule:evenodd;clip-rule:evenodd;stroke-linecap:round;stroke-linejoin:round;stroke-miterlimit:100;">
    <g transform="matrix(1.04191,0,0,0.857825,-996.284,-4814.01)">
        <path d="M1586.05,7369.84C1586.05,7369.84 1421.44,7254.7 1302.12,7171.25C1227.25,7118.89 1181.1,7021.94 1181.1,6917L1181.1,6180.52C1181.1,6107.58 1204.96,6037.63 1247.42,5986.06C1289.88,5934.49 1347.47,5905.51 1407.52,5905.51L3927.87,5905.51C4021.12,5905.51 4102.54,5982.24 4125.7,6091.96C4148.86,6201.68 4107.89,6316.53 4026.14,6371.03C3151.72,6953.97 1717.42,7910.17 1299.07,8189.07C1226.32,8237.57 1181.1,8330.36 1181.1,8431.17L1181.1,9169.65C1181.1,9323.83 1284.01,9448.82 1410.95,9448.82L3927.03,9448.82C4020.57,9448.82 4102.24,9371.89 4125.53,9261.85C4148.82,9151.82 4107.81,9036.59 4025.86,8981.8C3408.16,8568.83 2604.43,8031.5 2604.43,8031.5" style="fill:none;stroke:#fff;stroke-width:349.29px;"/>
    </g>
</svg>
